<svg width="18" height="18" viewBox="0 0 18 18" fill="none" xmlns="http://www.w3.org/2000/svg">
<mask id="mask0_330_2041" style="mask-type:alpha" maskUnits="userSpaceOnUse" x="0" y="0" width="18" height="18">
<rect width="18" height="18" fill="white"/>
</mask>
<g mask="url(#mask0_330_2041)">
<path d="M3 14C3 14.3978 3.15804 14.7794 3.43934 15.0607C3.72064 15.342 4.10218 15.5 4.5 15.5C4.89782 15.5 5.27936 15.342 5.56066 15.0607C5.84196 14.7794 6 14.3978 6 14C6 13.6022 5.84196 13.2206 5.56066 12.9393C5.27936 12.658 4.89782 12.5 4.5 12.5C4.10218 12.5 3.72064 12.658 3.43934 12.9393C3.15804 13.2206 3 13.6022 3 14Z" stroke="white" stroke-width="2" stroke-linecap="round" stroke-linejoin="round"/>
<path d="M11.25 14C11.25 14.3978 11.408 14.7794 11.6893 15.0607C11.9706 15.342 12.3522 15.5 12.75 15.5C13.1478 15.5 13.5294 15.342 13.8107 15.0607C14.092 14.7794 14.25 14.3978 14.25 14C14.25 13.6022 14.092 13.2206 13.8107 12.9393C13.5294 12.658 13.1478 12.5 12.75 12.5C12.3522 12.5 11.9706 12.658 11.6893 12.9393C11.408 13.2206 11.25 13.6022 11.25 14Z" stroke="white" stroke-width="2" stroke-linecap="round" stroke-linejoin="round"/>
<path d="M12.75 12.5H4.5V2H3" stroke="white" stroke-width="2" stroke-linecap="round" stroke-linejoin="round"/>
<path d="M4.5 3.5L15 4.25L14.25 9.5H4.5" stroke="white" stroke-width="2" stroke-linecap="round" stroke-linejoin="round"/>
</g>
</svg>
