<svg width="18" height="18" viewBox="0 0 18 18" fill="none" xmlns="http://www.w3.org/2000/svg">
<mask id="mask0_330_2055" style="mask-type:alpha" maskUnits="userSpaceOnUse" x="0" y="0" width="18" height="18">
<rect width="18" height="18" fill="white"/>
</mask>
<g mask="url(#mask0_330_2055)">
<path d="M6.09451 10.5C6.42755 11.7939 7.60212 12.75 9 12.75C10.3979 12.75 11.5725 11.7939 11.9055 10.5M8.26327 2.073L3.17654 6.02934C2.83652 6.29381 2.6665 6.42604 2.54402 6.59164C2.43552 6.73833 2.3547 6.90359 2.30552 7.07929C2.25 7.27764 2.25 7.49302 2.25 7.92379V13.35C2.25 14.1901 2.25 14.6101 2.41349 14.931C2.5573 15.2132 2.78677 15.4427 3.06901 15.5865C3.38988 15.75 3.80992 15.75 4.65 15.75H13.35C14.1901 15.75 14.6101 15.75 14.931 15.5865C15.2132 15.4427 15.4427 15.2132 15.5865 14.931C15.75 14.6101 15.75 14.1901 15.75 13.35V7.92379C15.75 7.49302 15.75 7.27764 15.6945 7.07929C15.6453 6.90359 15.5645 6.73833 15.456 6.59164C15.3335 6.42604 15.1635 6.29381 14.8235 6.02934L9.73673 2.073C9.47324 1.86806 9.34149 1.76559 9.19601 1.7262C9.06765 1.69145 8.93235 1.69145 8.80399 1.7262C8.65851 1.76559 8.52677 1.86806 8.26327 2.073Z" stroke="white" stroke-width="2" stroke-linecap="round" stroke-linejoin="round"/>
</g>
</svg>
