<svg width="18" height="18" viewBox="0 0 18 18" fill="none" xmlns="http://www.w3.org/2000/svg">
<mask id="mask0_330_2037" style="mask-type:alpha" maskUnits="userSpaceOnUse" x="0" y="0" width="18" height="18">
<rect width="18" height="18" fill="white"/>
</mask>
<g mask="url(#mask0_330_2037)">
<path d="M14.3847 9.43762L8.75975 15.0086L3.13475 9.43762C2.76373 9.07658 2.47148 8.64263 2.27641 8.16309C2.08134 7.68356 1.98767 7.16883 2.0013 6.65132C2.01493 6.1338 2.13557 5.62472 2.35562 5.15612C2.57566 4.68752 2.89035 4.26956 3.27986 3.92855C3.66938 3.58755 4.12528 3.33088 4.61886 3.17473C5.11244 3.01857 5.633 2.9663 6.14777 3.02122C6.66255 3.07613 7.16037 3.23703 7.6099 3.4938C8.05944 3.75056 8.45093 4.09762 8.75975 4.51312C9.0699 4.10063 9.46185 3.75661 9.91107 3.50257C10.3603 3.24853 10.8571 3.08995 11.3704 3.03676C11.8838 2.98356 12.4026 3.03689 12.8943 3.19341C13.3861 3.34993 13.8403 3.60627 14.2284 3.94639C14.6166 4.28651 14.9303 4.70308 15.1501 5.17004C15.3698 5.63699 15.4908 6.14428 15.5055 6.66015C15.5202 7.17602 15.4282 7.68936 15.2353 8.16805C15.0425 8.64675 14.7529 9.08048 14.3847 9.44212" stroke="white" stroke-width="2" stroke-linecap="round" stroke-linejoin="round"/>
</g>
</svg>
