<svg width="24" height="24" viewBox="0 0 24 24" fill="none" xmlns="http://www.w3.org/2000/svg">
<mask id="mask0_330_2117" style="mask-type:alpha" maskUnits="userSpaceOnUse" x="0" y="0" width="24" height="24">
<rect width="24" height="24" fill="white"/>
</mask>
<g mask="url(#mask0_330_2117)">
<path d="M3 9C3 8.73478 3.10536 8.48043 3.29289 8.29289C3.48043 8.10536 3.73478 8 4 8H20C20.2652 8 20.5196 8.10536 20.7071 8.29289C20.8946 8.48043 21 8.73478 21 9V11C21 11.2652 20.8946 11.5196 20.7071 11.7071C20.5196 11.8946 20.2652 12 20 12H4C3.73478 12 3.48043 11.8946 3.29289 11.7071C3.10536 11.5196 3 11.2652 3 11V9Z" stroke="#FF4C3B" stroke-width="2" stroke-linecap="round" stroke-linejoin="round"/>
<path d="M12 8V21" stroke="#FF4C3B" stroke-width="2" stroke-linecap="round" stroke-linejoin="round"/>
<path d="M19 12V19C19 19.5304 18.7893 20.0391 18.4142 20.4142C18.0391 20.7893 17.5304 21 17 21H7C6.46957 21 5.96086 20.7893 5.58579 20.4142C5.21071 20.0391 5 19.5304 5 19V12" stroke="#FF4C3B" stroke-width="2" stroke-linecap="round" stroke-linejoin="round"/>
<path d="M7.5 7.99999C6.83696 7.99999 6.20107 7.7366 5.73223 7.26776C5.26339 6.79892 5 6.16304 5 5.49999C5 4.83695 5.26339 4.20107 5.73223 3.73223C6.20107 3.26339 6.83696 2.99999 7.5 2.99999C8.46469 2.98319 9.41003 3.45125 10.2127 4.34316C11.0154 5.23506 11.6383 6.5094 12 7.99999C12.3617 6.5094 12.9846 5.23506 13.7873 4.34316C14.59 3.45125 15.5353 2.98319 16.5 2.99999C17.163 2.99999 17.7989 3.26339 18.2678 3.73223C18.7366 4.20107 19 4.83695 19 5.49999C19 6.16304 18.7366 6.79892 18.2678 7.26776C17.7989 7.7366 17.163 7.99999 16.5 7.99999" stroke="#FF4C3B" stroke-width="2" stroke-linecap="round" stroke-linejoin="round"/>
</g>
</svg>
