<svg width="34" height="14" viewBox="0 0 34 14" fill="none" xmlns="http://www.w3.org/2000/svg">
<path fill-rule="evenodd" clip-rule="evenodd" d="M15.5861 10.704V6.79113H17.6226C18.4571 6.79113 19.1614 6.51384 19.7356 5.96697L19.8734 5.82832C20.9223 4.69606 20.8534 2.93219 19.7356 1.88465C19.1767 1.33007 18.4112 1.02967 17.6226 1.04507H14.3535V10.704H15.5861ZM15.5853 5.60487V2.23118H17.6527C18.0968 2.23118 18.518 2.40064 18.8319 2.70874C19.4981 3.35575 19.5134 4.43409 18.8702 5.10421C18.5563 5.43542 18.1121 5.62028 17.6527 5.60487H15.5853ZM25.6219 4.61128C25.0936 4.12603 24.3739 3.87955 23.4629 3.87955C22.2915 3.87955 21.4111 4.31089 20.8293 5.16586L21.9164 5.85139C22.3145 5.266 22.8581 4.9733 23.5471 4.9733C23.9835 4.9733 24.4046 5.13505 24.7338 5.42775C25.0553 5.70504 25.2391 6.10557 25.2391 6.52921V6.8142C24.7644 6.55231 24.1672 6.41367 23.4323 6.41367C22.5748 6.41367 21.8858 6.61393 21.3728 7.02217C20.8599 7.4304 20.5996 7.96957 20.5996 8.6551C20.5843 9.279 20.8522 9.87209 21.3269 10.2726C21.8092 10.704 22.4217 10.9196 23.1413 10.9196C23.9912 10.9196 24.6649 10.5422 25.1778 9.78736H25.2314V10.704H26.4104V6.62934C26.4104 5.77436 26.1501 5.09654 25.6219 4.61128ZM22.2756 9.48699C22.0229 9.30213 21.8698 9.00173 21.8698 8.67823C21.8698 8.31621 22.0382 8.01581 22.3675 7.77704C22.7044 7.53826 23.1256 7.41502 23.6233 7.41502C24.3124 7.40732 24.8484 7.56137 25.2313 7.86947C25.2313 8.39324 25.0245 8.84768 24.6187 9.23281C24.2512 9.60253 23.7534 9.81049 23.2328 9.81049C22.8882 9.8182 22.5513 9.70266 22.2756 9.48699ZM29.062 13.6078L33.1809 4.09521H31.8411L29.9348 8.83995H29.9118L27.9596 4.09521H26.6198L29.3223 10.2803L27.7911 13.6078H29.062Z" fill="#3C4043"/>
<path d="M11.3313 5.94386C11.3313 5.56644 11.3006 5.18902 11.2394 4.8193H6.04102V6.95289H9.01917C8.89667 7.63841 8.49856 8.25461 7.91671 8.63974V10.0262H9.69289C10.7341 9.06337 11.3313 7.63841 11.3313 5.94386Z" fill="#4285F4"/>
<path d="M6.04189 11.3664C7.52714 11.3664 8.78271 10.8735 9.69376 10.0262L7.91759 8.63975C7.41996 8.97866 6.78452 9.17122 6.04189 9.17122C4.60258 9.17122 3.38529 8.193 2.9489 6.88358H1.11914V8.31624C2.05316 10.1879 3.95948 11.3664 6.04189 11.3664Z" fill="#25D366"/>
<path d="M2.94891 6.88358C2.7192 6.19806 2.7192 5.45092 2.94891 4.75769V3.33273H1.11886C0.330173 4.89634 0.330173 6.74494 1.11886 8.30855L2.94891 6.88358Z" fill="#FBBC04"/>
<path d="M6.04189 2.47004C6.83045 2.45463 7.58839 2.75503 8.15492 3.30191L9.73204 1.71519C8.72912 0.775488 7.4123 0.259421 6.04189 0.274826C3.95948 0.274826 2.05316 1.46101 1.11914 3.33272L2.9489 4.76538C3.38529 3.44825 4.60258 2.47004 6.04189 2.47004Z" fill="#EA4335"/>
</svg>
