<svg width="28" height="18" viewBox="0 0 28 18" fill="none" xmlns="http://www.w3.org/2000/svg">
<path fill-rule="evenodd" clip-rule="evenodd" d="M24.9375 14.4973C21.9344 16.6993 17.581 17.8701 13.8318 17.8701C8.57755 17.8701 3.84612 15.9403 0.265978 12.7284C-0.0150692 12.4761 0.235305 12.1316 0.573417 12.3272C4.43603 14.5604 9.21311 15.9055 14.1471 15.9055C17.4755 15.9055 21.1341 15.2195 24.5009 13.8006C25.0081 13.5859 25.4339 14.1323 24.9375 14.4973ZM26.1865 13.0799C26.571 13.5689 25.7592 15.5824 25.3968 16.4817C25.287 16.7539 25.5224 16.8637 25.7706 16.6575C27.3813 15.3187 27.7979 12.5129 27.4683 12.1075C27.1409 11.7057 24.3247 11.3598 22.6056 12.559C22.341 12.7432 22.3867 12.9984 22.6798 12.9629C23.6478 12.8481 25.8027 12.5909 26.1865 13.0799Z" fill="#FF9900"/>
<path fill-rule="evenodd" clip-rule="evenodd" d="M21.8395 9.47463L24.9653 1.57033C25.0309 1.41016 25.0644 1.29747 25.0644 1.23156C25.0644 1.11888 24.9981 1.06218 24.8654 1.06218H24.0701C23.9181 1.06218 23.8147 1.08628 23.7569 1.13305C23.6998 1.18053 23.6435 1.28401 23.5864 1.44418L21.6683 6.92042L19.6796 1.44418C19.6225 1.28401 19.5662 1.18053 19.5091 1.13305C19.452 1.08628 19.3479 1.06218 19.196 1.06218H18.3435C18.2109 1.06218 18.1445 1.11888 18.1445 1.23156C18.1445 1.29747 18.1773 1.41016 18.2437 1.57033L20.9857 8.28895L20.716 9.009C20.5548 9.46116 20.3751 9.77158 20.1761 9.94096C19.977 10.1103 19.6974 10.1947 19.3379 10.1947C19.1767 10.1947 19.049 10.1848 18.9549 10.1663C18.86 10.1479 18.7887 10.138 18.7416 10.138C18.5996 10.138 18.5283 10.2273 18.5283 10.4059V10.773C18.5283 10.9048 18.5518 11.0012 18.5996 11.0621C18.6467 11.1231 18.7223 11.1685 18.8272 11.1961C19.0633 11.2613 19.3336 11.2953 19.6368 11.2953C20.1768 11.2953 20.6147 11.1543 20.9507 10.8715C21.2881 10.5901 21.5841 10.1238 21.8395 9.47463Z" fill="#232F3E"/>
<path fill-rule="evenodd" clip-rule="evenodd" d="M10.1704 3.00478C10.0328 2.54837 9.8366 2.16 9.58052 1.84037C9.32515 1.52074 9.01272 1.27552 8.64322 1.10614C8.27443 0.936754 7.86214 0.852417 7.40704 0.852417C6.98119 0.852417 6.5639 0.931793 6.15731 1.09196C5.75001 1.25213 5.36624 1.48743 5.00602 1.79784L4.9354 1.34568C4.90686 1.15787 4.79773 1.06361 4.60798 1.06361H3.98312C3.79409 1.06361 3.69922 1.15787 3.69922 1.34568V10.8453C3.69922 11.0338 3.79409 11.1274 3.98312 11.1274H4.82127C5.01101 11.1274 5.10517 11.0331 5.10517 10.8453V7.54269C5.72076 8.09761 6.45476 8.37543 7.30718 8.37543C7.77083 8.37543 8.1924 8.28329 8.57117 8.10044C8.94994 7.91689 9.27165 7.66033 9.537 7.33078C9.80236 7.00194 10.0085 6.60222 10.1547 6.13093C10.3017 5.66034 10.3752 5.13306 10.3752 4.54978C10.3766 3.97643 10.3074 3.4612 10.1704 3.00478ZM6.98119 7.24573C6.33635 7.24573 5.71149 7.02036 5.10588 6.5682V2.63058C5.70221 2.19756 6.33706 1.9814 7.00972 1.9814C8.29797 1.9814 8.9421 2.86162 8.9421 4.62065C8.94138 6.37118 8.28799 7.24573 6.98119 7.24573Z" fill="#232F3E"/>
<path fill-rule="evenodd" clip-rule="evenodd" d="M16.5776 1.40664C16.1511 1.04023 15.4884 0.856674 14.5889 0.856674C14.1438 0.856674 13.6987 0.897071 13.2536 0.976447C12.8077 1.05653 12.434 1.16213 12.1308 1.29395C12.0174 1.34144 11.9411 1.39034 11.9033 1.44207C11.8655 1.49381 11.8462 1.58594 11.8462 1.71705V2.09763C11.8462 2.26702 11.9075 2.35206 12.0309 2.35206C12.0688 2.35206 12.1094 2.34498 12.1522 2.3308C12.195 2.31663 12.2307 2.30529 12.2585 2.29537C12.9882 2.07921 13.6837 1.97077 14.3471 1.97077C14.9149 1.97077 15.3129 2.07425 15.5405 2.2819C15.768 2.48884 15.8814 2.84604 15.8814 3.35419V4.28544C15.2188 4.12527 14.6217 4.04589 14.091 4.04589C13.2579 4.04589 12.5952 4.25071 12.1023 4.65964C11.6101 5.06857 11.3633 5.61711 11.3633 6.30386C11.3633 6.94453 11.5623 7.4541 11.9603 7.83539C12.3576 8.21668 12.8976 8.40661 13.5796 8.40661C13.9869 8.40661 14.3963 8.32653 14.8086 8.16707C15.2209 8.00761 15.5968 7.78082 15.9378 7.48954L16.0091 7.95516C16.0376 8.13376 16.1418 8.22306 16.3223 8.22306H16.9329C17.1219 8.22306 17.2175 8.1288 17.2175 7.94099V3.11464C17.2168 2.34285 17.0035 1.77375 16.5776 1.40664ZM15.8814 6.62987C15.569 6.86516 15.2423 7.04376 14.9013 7.16636C14.5604 7.28897 14.2337 7.34992 13.9212 7.34992C13.5517 7.34992 13.2678 7.25353 13.0688 7.06076C12.8698 6.86799 12.7707 6.59301 12.7707 6.23511C12.7707 5.41655 13.3056 5.00691 14.3756 5.00691C14.6217 5.00691 14.8749 5.02392 15.1353 5.05652C15.3957 5.08983 15.6446 5.13448 15.8814 5.19047V6.62987Z" fill="#232F3E"/>
</svg>
