<svg width="33" height="12" viewBox="0 0 33 12" fill="none" xmlns="http://www.w3.org/2000/svg">
<path fill-rule="evenodd" clip-rule="evenodd" d="M8.44956 11.1443H5.68016L3.60344 3.05649C3.50487 2.68445 3.29558 2.35555 2.98772 2.20053C2.21942 1.81097 1.3728 1.50093 0.449219 1.34457V1.03319H4.9105C5.52623 1.03319 5.98802 1.50093 6.06498 2.04417L7.1425 7.87819L9.91055 1.03319H12.603L8.44956 11.1443ZM14.1409 11.1443H11.5254L13.6791 1.03319H16.2945L14.1409 11.1443ZM19.6795 3.83429C19.7565 3.28971 20.2183 2.97833 20.7571 2.97833C21.6037 2.90014 22.5259 3.05651 23.2956 3.44472L23.7574 1.26775C22.9877 0.956368 22.1411 0.800003 21.3728 0.800003C18.8343 0.800003 16.9871 2.20055 16.9871 4.14432C16.9871 5.62305 18.2955 6.39948 19.2191 6.86723C20.2183 7.33362 20.6031 7.64501 20.5262 8.1114C20.5262 8.811 19.7565 9.12238 18.9882 9.12238C18.0646 9.12238 17.141 8.88918 16.2958 8.49962L15.834 10.6779C16.7576 11.0662 17.7568 11.2225 18.6803 11.2225C21.5267 11.2994 23.2956 9.90016 23.2956 7.80002C23.2956 5.1553 19.6795 5.00028 19.6795 3.83429ZM32.4472 11.1443L30.3705 1.03319H28.1399C27.6781 1.03319 27.2163 1.34457 27.0624 1.81097L23.2168 11.1443H25.9092L26.4466 9.66695H29.7548L30.0627 11.1443H32.4472ZM28.528 3.75611L29.2963 7.56683H27.1426L28.528 3.75611Z" fill="#172B85"/>
</svg>
