<svg width="20" height="20" viewBox="0 0 20 20" fill="none" xmlns="http://www.w3.org/2000/svg">
<path d="M15.625 5.5V2.125C15.625 1.82663 15.5065 1.54048 15.2955 1.32951C15.0845 1.11853 14.7984 1 14.5 1H3.25C2.65326 1 2.08097 1.23705 1.65901 1.65901C1.23705 2.08097 1 2.65326 1 3.25C1 3.84674 1.23705 4.41903 1.65901 4.84099C2.08097 5.26295 2.65326 5.5 3.25 5.5H16.75C17.0484 5.5 17.3345 5.61853 17.5455 5.82951C17.7565 6.04048 17.875 6.32663 17.875 6.625V10M17.875 14.5V17.875C17.875 18.1734 17.7565 18.4595 17.5455 18.6705C17.3345 18.8815 17.0484 19 16.75 19H3.25C2.65326 19 2.08097 18.7629 1.65901 18.341C1.23705 17.919 1 17.3467 1 16.75V3.25" stroke="black" stroke-width="2" stroke-linecap="round" stroke-linejoin="round"/>
<path d="M19 10V14.5H14.5C13.9033 14.5 13.331 14.2629 12.909 13.841C12.4871 13.419 12.25 12.8467 12.25 12.25C12.25 11.6533 12.4871 11.081 12.909 10.659C13.331 10.2371 13.9033 10 14.5 10H19Z" stroke="black" stroke-width="2" stroke-linecap="round" stroke-linejoin="round"/>
</svg>
