<svg width="24" height="24" viewBox="0 0 24 24" fill="none" xmlns="http://www.w3.org/2000/svg">
<mask id="mask0_330_6462" style="mask-type:alpha" maskUnits="userSpaceOnUse" x="0" y="0" width="24" height="24">
<rect width="24" height="24" fill="white"/>
</mask>
<g mask="url(#mask0_330_6462)">
<path d="M8.12602 14.0001C8.57006 15.7253 10.1362 17.0001 12 17.0001C13.8638 17.0001 15.4299 15.7253 15.874 14.0001M11.0177 2.76412L4.23539 8.03925C3.78202 8.39187 3.55534 8.56818 3.39203 8.78898C3.24737 8.98457 3.1396 9.20491 3.07403 9.43917C3 9.70364 3 9.99082 3 10.5652V17.8001C3 18.9202 3 19.4803 3.21799 19.9081C3.40973 20.2844 3.71569 20.5904 4.09202 20.7821C4.51984 21.0001 5.07989 21.0001 6.2 21.0001H17.8C18.9201 21.0001 19.4802 21.0001 19.908 20.7821C20.2843 20.5904 20.5903 20.2844 20.782 19.9081C21 19.4803 21 18.9202 21 17.8001V10.5652C21 9.99082 21 9.70364 20.926 9.43917C20.8604 9.20491 20.7526 8.98457 20.608 8.78898C20.4447 8.56818 20.218 8.39187 19.7646 8.03925L12.9823 2.76412C12.631 2.49087 12.4553 2.35424 12.2613 2.30172C12.0902 2.25538 11.9098 2.25538 11.7387 2.30172C11.5447 2.35424 11.369 2.49087 11.0177 2.76412Z" stroke="#FF4C3B" stroke-width="2" stroke-linecap="round" stroke-linejoin="round"/>
</g>
</svg>
