<svg width="42" height="27" viewBox="0 0 42 27" fill="none" xmlns="http://www.w3.org/2000/svg">
<path fill-rule="evenodd" clip-rule="evenodd" d="M37.9642 20.8937C33.3657 24.2655 26.6996 26.0583 20.9587 26.0583C12.9131 26.0583 5.66805 23.1032 0.185965 18.185C-0.244388 17.7987 0.138997 17.2713 0.656732 17.5708C6.57136 20.9903 13.8863 23.0501 21.4415 23.0501C26.538 23.0501 32.1402 21.9996 37.2957 19.827C38.0723 19.4981 38.7244 20.3348 37.9642 20.8937ZM39.8767 18.7233C40.4655 19.4721 39.2225 22.5552 38.6676 23.9323C38.4994 24.3491 38.8599 24.5173 39.24 24.2015C41.7063 22.1515 42.3442 17.8551 41.8396 17.2344C41.3382 16.619 37.0259 16.0895 34.3936 17.9257C33.9883 18.2078 34.0582 18.5985 34.5072 18.5442C35.9894 18.3684 39.2891 17.9745 39.8767 18.7233Z" fill="#FF9900"/>
<path fill-rule="evenodd" clip-rule="evenodd" d="M33.2204 13.2028L38.0067 1.09933C38.1072 0.854071 38.1586 0.681521 38.1586 0.580596C38.1586 0.408046 38.057 0.321228 37.8538 0.321228H36.636C36.4033 0.321228 36.2449 0.358125 36.1564 0.42975C36.0691 0.50246 35.9828 0.660902 35.8954 0.906161L32.9583 9.29165L29.9131 0.906161C29.8257 0.660902 29.7394 0.50246 29.652 0.42975C29.5646 0.358125 29.4052 0.321228 29.1725 0.321228H27.8672C27.6641 0.321228 27.5625 0.408046 27.5625 0.580596C27.5625 0.681521 27.6127 0.854071 27.7143 1.09933L31.913 11.3872L31.5001 12.4898C31.2533 13.1822 30.978 13.6575 30.6733 13.9169C30.3685 14.1762 29.9404 14.3054 29.3899 14.3054C29.143 14.3054 28.9475 14.2902 28.8033 14.262C28.658 14.2337 28.5488 14.2186 28.4767 14.2186C28.2594 14.2186 28.1501 14.3553 28.1501 14.6288V15.1909C28.1501 15.3928 28.1862 15.5403 28.2594 15.6337C28.3315 15.727 28.4472 15.7965 28.6078 15.8388C28.9693 15.9386 29.3833 15.9907 29.8475 15.9907C30.6744 15.9907 31.345 15.7748 31.8595 15.3418C32.3761 14.9109 32.8294 14.1968 33.2204 13.2028Z" fill="#232F3E"/>
<path fill-rule="evenodd" clip-rule="evenodd" d="M15.3524 3.29581C15.1416 2.59693 14.8412 2.00223 14.4491 1.5128C14.0581 1.02336 13.5797 0.647876 13.0139 0.388509C12.4492 0.129141 11.8178 0 11.121 0C10.4689 0 9.8299 0.121545 9.20731 0.366804C8.58363 0.612064 7.99599 0.972357 7.44439 1.44768L7.33626 0.755313C7.29257 0.46773 7.12545 0.323396 6.83491 0.323396H5.87808C5.58863 0.323396 5.44336 0.46773 5.44336 0.755313V15.3016C5.44336 15.5903 5.58863 15.7335 5.87808 15.7335H7.16149C7.45204 15.7335 7.59622 15.5892 7.59622 15.3016V10.2445C8.53884 11.0942 9.66279 11.5196 10.968 11.5196C11.678 11.5196 12.3235 11.3785 12.9035 11.0985C13.4835 10.8175 13.9761 10.4246 14.3825 9.92C14.7888 9.41645 15.1045 8.80439 15.3284 8.08272C15.5534 7.36213 15.6659 6.55473 15.6659 5.66159C15.6681 4.78365 15.5621 3.99469 15.3524 3.29581ZM10.4689 9.78977C9.48147 9.78977 8.52464 9.44467 7.59731 8.7523V2.72282C8.51044 2.05975 9.48256 1.72876 10.5126 1.72876C12.4852 1.72876 13.4715 3.0766 13.4715 5.77011C13.4704 8.45061 12.4699 9.78977 10.4689 9.78977Z" fill="#232F3E"/>
<path fill-rule="evenodd" clip-rule="evenodd" d="M25.1622 0.848646C24.509 0.287587 23.4943 0.0065155 22.117 0.0065155C21.4354 0.0065155 20.7538 0.068373 20.0722 0.189918C19.3896 0.312547 18.8172 0.474245 18.353 0.676096C18.1793 0.748806 18.0625 0.823686 18.0046 0.902907C17.9467 0.982128 17.9172 1.12321 17.9172 1.32397V1.90674C17.9172 2.1661 18.0111 2.29633 18.2001 2.29633C18.258 2.29633 18.3202 2.28548 18.3858 2.26377C18.4513 2.24207 18.5059 2.2247 18.5485 2.20951C19.6659 1.87852 20.7309 1.71248 21.7467 1.71248C22.6161 1.71248 23.2256 1.87092 23.574 2.18889C23.9225 2.50578 24.0961 3.05273 24.0961 3.83083V5.25681C23.0814 5.01155 22.1672 4.89 21.3546 4.89C20.0788 4.89 19.0641 5.20363 18.3093 5.8298C17.5557 6.45598 17.1777 7.29594 17.1777 8.34751C17.1777 9.32855 17.4825 10.1088 18.092 10.6927C18.7004 11.2765 19.5272 11.5674 20.5714 11.5674C21.1951 11.5674 21.8221 11.4447 22.4534 11.2006C23.0847 10.9564 23.6603 10.6091 24.1824 10.1631L24.2917 10.8761C24.3354 11.1496 24.4948 11.2863 24.7712 11.2863H25.7061C25.9956 11.2863 26.142 11.142 26.142 10.8544V3.46403C26.1409 2.28222 25.8143 1.41079 25.1622 0.848646ZM24.0961 8.84671C23.6177 9.20701 23.1175 9.48048 22.5954 9.66823C22.0733 9.85597 21.573 9.9493 21.0946 9.9493C20.5288 9.9493 20.0941 9.80171 19.7893 9.50653C19.4846 9.21135 19.3328 8.79028 19.3328 8.24225C19.3328 6.98882 20.152 6.36156 21.7904 6.36156C22.1672 6.36156 22.555 6.38761 22.9536 6.43753C23.3523 6.48853 23.7335 6.5569 24.0961 6.64263V8.84671Z" fill="#232F3E"/>
</svg>
