<svg width="51" height="22" viewBox="0 0 51 22" fill="none" xmlns="http://www.w3.org/2000/svg">
<path fill-rule="evenodd" clip-rule="evenodd" d="M9.45505 3.03395C8.8675 3.75241 7.92742 4.31908 6.98733 4.23813C6.86982 3.26669 7.33007 2.23454 7.86866 1.59704C8.45621 0.858342 9.48443 0.332148 10.3168 0.291672C10.4147 1.30358 10.0328 2.29526 9.45505 3.03395ZM10.3069 4.43038C9.47873 4.38113 8.72304 4.68776 8.11265 4.93544C7.71984 5.09482 7.38721 5.22979 7.13415 5.22979C6.85016 5.22979 6.5038 5.08761 6.11491 4.92796C5.60534 4.71878 5.02276 4.47962 4.41183 4.4911C3.0115 4.51134 1.70909 5.33099 0.99424 6.63635C-0.474638 9.24708 0.612331 13.1126 2.03225 15.2376C2.72752 16.29 3.55988 17.4436 4.65664 17.4031C5.13915 17.3843 5.48624 17.2321 5.84544 17.0746C6.25899 16.8932 6.68859 16.7049 7.35938 16.7049C8.00691 16.7049 8.41772 16.8883 8.81208 17.0644C9.18705 17.2319 9.54714 17.3927 10.0817 17.3828C11.2176 17.3626 11.9325 16.3305 12.6278 15.2781C13.3781 14.1486 13.7078 13.0462 13.7578 12.879L13.7637 12.8596C13.7625 12.8584 13.7532 12.854 13.7369 12.8463L13.7369 12.8462C13.486 12.7276 11.569 11.8207 11.5506 9.38875C11.5321 7.3475 13.0711 6.31327 13.3134 6.15047C13.3282 6.14056 13.3381 6.13388 13.3426 6.13039C12.3634 4.63277 10.8357 4.47086 10.3069 4.43038ZM18.1704 17.2715V1.49583H23.899C26.8564 1.49583 28.9226 3.60061 28.9226 6.67682C28.9226 9.75303 26.8172 11.878 23.8207 11.878H20.5402V17.2715H18.1704ZM20.54 3.56013H23.2721C25.3285 3.56013 26.5036 4.69348 26.5036 6.68694C26.5036 8.68041 25.3285 9.82387 23.2623 9.82387H20.54V3.56013ZM36.7469 15.3793C36.1202 16.6138 34.7395 17.393 33.251 17.393C31.0477 17.393 29.5103 16.037 29.5103 13.9929C29.5103 11.9691 30.9987 10.8054 33.7504 10.6334L36.7078 10.4513V9.58101C36.7078 8.29588 35.895 7.59766 34.4457 7.59766C33.251 7.59766 32.3795 8.23517 32.2032 9.2066H30.0684C30.137 7.16254 31.9976 5.67503 34.5142 5.67503C37.2268 5.67503 38.9894 7.1423 38.9894 9.4191V17.2715H36.7959V15.3793H36.7469ZM33.8873 15.5209C32.6241 15.5209 31.8211 14.8936 31.8211 13.9322C31.8211 12.9406 32.5947 12.3638 34.0734 12.2727L36.7076 12.1007V12.9912C36.7076 14.4685 35.4933 15.5209 33.8873 15.5209ZM46.2652 17.8888C45.3153 20.6513 44.2283 21.562 41.9173 21.562C41.741 21.562 41.1535 21.5418 41.0164 21.5013V19.6091C41.1633 19.6293 41.5256 19.6495 41.7116 19.6495C42.7594 19.6495 43.347 19.1942 43.7093 18.0102L43.9247 17.312L39.9098 5.82683H42.3873L45.1782 15.1465H45.2272L48.018 5.82683H50.427L46.2652 17.8888Z" fill="black"/>
</svg>
