<svg width="18" height="21" viewBox="0 0 18 21" fill="none" xmlns="http://www.w3.org/2000/svg">
<path d="M1 17.6667C1 18.1971 1.21071 18.7058 1.58579 19.0809C1.96086 19.4559 2.46957 19.6667 3 19.6667C3.53043 19.6667 4.03914 19.4559 4.41421 19.0809C4.78929 18.7058 5 18.1971 5 17.6667C5 17.1362 4.78929 16.6275 4.41421 16.2524C4.03914 15.8774 3.53043 15.6667 3 15.6667C2.46957 15.6667 1.96086 15.8774 1.58579 16.2524C1.21071 16.6275 1 17.1362 1 17.6667Z" stroke="black" stroke-width="2" stroke-linecap="round" stroke-linejoin="round"/>
<path d="M12 17.6667C12 18.1971 12.2107 18.7058 12.5858 19.0809C12.9609 19.4559 13.4696 19.6667 14 19.6667C14.5304 19.6667 15.0391 19.4559 15.4142 19.0809C15.7893 18.7058 16 18.1971 16 17.6667C16 17.1362 15.7893 16.6275 15.4142 16.2524C15.0391 15.8774 14.5304 15.6667 14 15.6667C13.4696 15.6667 12.9609 15.8774 12.5858 16.2524C12.2107 16.6275 12 17.1362 12 17.6667Z" stroke="black" stroke-width="2" stroke-linecap="round" stroke-linejoin="round"/>
<path d="M14 15.6667H3V1.66666H1" stroke="black" stroke-width="2" stroke-linecap="round" stroke-linejoin="round"/>
<path d="M3 3.66666L17 4.66666L16 11.6667H3" stroke="black" stroke-width="2" stroke-linecap="round" stroke-linejoin="round"/>
</svg>
