<svg width="18" height="18" viewBox="0 0 18 18" fill="none" xmlns="http://www.w3.org/2000/svg">
<mask id="mask0_330_3492" style="mask-type:alpha" maskUnits="userSpaceOnUse" x="0" y="0" width="18" height="18">
<rect width="18" height="18" fill="white"/>
</mask>
<g mask="url(#mask0_330_3492)">
<path d="M5.25 9.74999V3.75C5.25 3.55108 5.17098 3.36032 5.03033 3.21967C4.88968 3.07901 4.69891 3 4.5 3H3C2.80109 3 2.61032 3.07901 2.46967 3.21967C2.32902 3.36032 2.25 3.55108 2.25 3.75V8.99999C2.25 9.19891 2.32902 9.38967 2.46967 9.53032C2.61032 9.67098 2.80109 9.74999 3 9.74999H5.25ZM5.25 9.74999C6.04565 9.74999 6.80871 10.0661 7.37132 10.6287C7.93393 11.1913 8.25 11.9543 8.25 12.75V13.5C8.25 13.8978 8.40804 14.2794 8.68934 14.5607C8.97064 14.842 9.35218 15 9.75 15C10.1478 15 10.5294 14.842 10.8107 14.5607C11.092 14.2794 11.25 13.8978 11.25 13.5V9.74999H13.5C13.8978 9.74999 14.2794 9.59196 14.5607 9.31065C14.842 9.02935 15 8.64782 15 8.24999L14.25 4.5C14.1421 4.03989 13.9375 3.64481 13.667 3.37427C13.3964 3.10373 13.0746 2.97238 12.75 3H7.5C6.90326 3 6.33097 3.23705 5.90901 3.659C5.48705 4.08096 5.25 4.65326 5.25 5.25" stroke="#ED0006" stroke-width="2" stroke-linecap="round" stroke-linejoin="round"/>
</g>
</svg>
