<svg width="18" height="18" viewBox="0 0 18 18" fill="none" xmlns="http://www.w3.org/2000/svg">
<mask id="mask0_330_2067" style="mask-type:alpha" maskUnits="userSpaceOnUse" x="0" y="0" width="18" height="18">
<rect width="18" height="18" fill="white"/>
</mask>
<g mask="url(#mask0_330_2067)">
<path d="M6 15L13.875 7.125C14.072 6.92802 14.2282 6.69416 14.3348 6.43679C14.4415 6.17942 14.4963 5.90357 14.4963 5.625C14.4963 5.34642 14.4415 5.07057 14.3348 4.8132C14.2282 4.55583 14.072 4.32198 13.875 4.125C13.678 3.92802 13.4442 3.77176 13.1868 3.66515C12.9294 3.55855 12.6536 3.50368 12.375 3.50368C12.0964 3.50368 11.8206 3.55855 11.5632 3.66515C11.3058 3.77176 11.072 3.92802 10.875 4.125L3 12V15H6Z" stroke="white" stroke-width="2" stroke-linecap="round" stroke-linejoin="round"/>
<path d="M10.125 4.875L13.125 7.875" stroke="white" stroke-width="2" stroke-linecap="round" stroke-linejoin="round"/>
<path d="M12 13.5H15M13.5 12V15" stroke="white" stroke-width="2" stroke-linecap="round" stroke-linejoin="round"/>
</g>
</svg>
