<svg width="50" height="22" viewBox="0 0 50 22" fill="none" xmlns="http://www.w3.org/2000/svg">
<path fill-rule="evenodd" clip-rule="evenodd" d="M23.0593 16.703V10.7114H26.1776C27.4555 10.7114 28.534 10.2868 29.4132 9.44938L29.6242 9.23708C31.2303 7.5033 31.1248 4.80237 29.4132 3.19833C28.5574 2.34913 27.3851 1.88914 26.1776 1.91273H21.1719V16.703H23.0593ZM23.0595 8.89493V3.72896H26.2252C26.9053 3.72896 27.5502 3.98844 28.0309 4.46022C29.051 5.45095 29.0744 7.10217 28.0895 8.12829C27.6088 8.63545 26.9287 8.91852 26.2252 8.89493H23.0595ZM38.4284 7.37352C37.6195 6.63047 36.5175 6.25305 35.1224 6.25305C33.3288 6.25305 31.9806 6.91353 31.0897 8.22272L32.7544 9.27242C33.364 8.37605 34.1963 7.92786 35.2514 7.92786C35.9196 7.92786 36.5644 8.17554 37.0685 8.62373C37.5608 9.04833 37.8422 9.66164 37.8422 10.3103V10.7467C37.1154 10.3457 36.201 10.1334 35.0755 10.1334C33.7626 10.1334 32.7075 10.4401 31.922 11.0652C31.1366 11.6903 30.738 12.5159 30.738 13.5656C30.7145 14.521 31.1249 15.4291 31.8517 16.0424C32.5902 16.7029 33.5281 17.0332 34.6301 17.0332C35.9313 17.0332 36.963 16.4552 37.7484 15.2994H37.8305V16.7029H39.6358V10.4637C39.6358 9.15448 39.2373 8.11657 38.4284 7.37352ZM33.3057 14.8394C32.9187 14.5564 32.6842 14.0964 32.6842 13.601C32.6842 13.0467 32.9422 12.5867 33.4464 12.2211C33.9623 11.8554 34.6071 11.6667 35.3693 11.6667C36.4245 11.6549 37.2453 11.8908 37.8315 12.3626C37.8315 13.1646 37.5149 13.8605 36.8935 14.4502C36.3307 15.0164 35.5686 15.3348 34.7713 15.3348C34.2437 15.3466 33.7278 15.1697 33.3057 14.8394ZM43.6921 21.1494L49.9991 6.58328H47.9476L45.0285 13.8487H44.9933L42.0039 6.58328H39.9524L44.0907 16.0542L41.746 21.1494H43.6921Z" fill="#3C4043"/>
<path d="M16.544 9.41404C16.544 8.83611 16.4971 8.25818 16.4034 7.69205H8.44336V10.9591H13.0037C12.8161 12.0088 12.2065 12.9524 11.3155 13.5421V15.6651H14.0353C15.6296 14.1908 16.544 12.0088 16.544 9.41404Z" fill="#4285F4"/>
<path d="M8.44421 17.7174C10.7185 17.7174 12.6411 16.9625 14.0361 15.6651L11.3164 13.5421C10.5544 14.0611 9.58136 14.3559 8.44421 14.3559C6.24027 14.3559 4.37629 12.858 3.70807 10.853H0.90625V13.0467C2.33647 15.9128 5.25553 17.7174 8.44421 17.7174Z" fill="#25D366"/>
<path d="M3.70803 10.853C3.35628 9.80329 3.35628 8.65923 3.70803 7.59773V5.41576H0.905755C-0.301918 7.81003 -0.301918 10.6407 0.905755 13.035L3.70803 10.853Z" fill="#FBBC04"/>
<path d="M8.44421 4.09475C9.65169 4.07116 10.8123 4.53114 11.6798 5.36855L14.0948 2.93889C12.559 1.49997 10.5427 0.709743 8.44421 0.733332C5.25553 0.733332 2.33647 2.54968 0.90625 5.41573L3.70807 7.60949C4.37629 5.59264 6.24027 4.09475 8.44421 4.09475Z" fill="#EA4335"/>
</svg>
