<svg width="32" height="32" viewBox="0 0 32 32" fill="none" xmlns="http://www.w3.org/2000/svg">
<mask id="mask0_330_1569" style="mask-type:alpha" maskUnits="userSpaceOnUse" x="0" y="0" width="32" height="32">
<rect width="32" height="32" fill="white"/>
</mask>
<g mask="url(#mask0_330_1569)">
<path d="M15.0448 4.60442C15.3522 3.98183 15.5058 3.67054 15.7144 3.57108C15.8959 3.48455 16.1068 3.48455 16.2882 3.57108C16.4968 3.67054 16.6505 3.98183 16.9578 4.60442L19.8734 10.511C19.9641 10.6948 20.0095 10.7867 20.0758 10.8581C20.1345 10.9213 20.2049 10.9725 20.2831 11.0088C20.3714 11.0499 20.4728 11.0647 20.6756 11.0944L27.1973 12.0476C27.8841 12.148 28.2274 12.1982 28.3863 12.3659C28.5246 12.5119 28.5896 12.7124 28.5633 12.9117C28.5331 13.1408 28.2845 13.3829 27.7873 13.8672L23.0699 18.4619C22.9228 18.6051 22.8493 18.6767 22.8019 18.7619C22.7599 18.8374 22.7329 18.9203 22.7225 19.006C22.7108 19.1028 22.7281 19.204 22.7628 19.4063L23.8759 25.8962C23.9933 26.5807 24.052 26.9229 23.9417 27.126C23.8457 27.3027 23.6751 27.4266 23.4774 27.4633C23.2501 27.5054 22.9428 27.3438 22.3281 27.0205L16.4978 23.9544C16.3161 23.8589 16.2253 23.8111 16.1296 23.7924C16.0449 23.7758 15.9578 23.7758 15.873 23.7924C15.7773 23.8111 15.6865 23.8589 15.5048 23.9544L9.67453 27.0205C9.05986 27.3438 8.75252 27.5054 8.52526 27.4633C8.32754 27.4266 8.15693 27.3027 8.06095 27.126C7.95064 26.9229 8.00934 26.5807 8.12673 25.8962L9.23982 19.4063C9.27452 19.204 9.29187 19.1028 9.28013 19.006C9.26973 18.9203 9.24278 18.8374 9.20078 18.7619C9.15333 18.6767 9.0798 18.6051 8.93275 18.4619L4.21538 13.8672C3.71819 13.3829 3.46959 13.1408 3.43934 12.9117C3.41302 12.7124 3.47804 12.5119 3.6163 12.3659C3.77522 12.1982 4.1186 12.148 4.80536 12.0476L11.3271 11.0944C11.5299 11.0647 11.6313 11.0499 11.7196 11.0088C11.7978 10.9725 11.8682 10.9213 11.9269 10.8581C11.9932 10.7867 12.0385 10.6948 12.1293 10.511L15.0448 4.60442Z" fill="#FF4C3B"/>
</g>
</svg>
