<svg width="34" height="15" viewBox="0 0 34 15" fill="none" xmlns="http://www.w3.org/2000/svg">
<path fill-rule="evenodd" clip-rule="evenodd" d="M6.70567 2.12421C6.32197 2.5934 5.70804 2.96347 5.09411 2.91061C5.01736 2.2762 5.31793 1.60214 5.66967 1.18581C6.05337 0.703399 6.72486 0.359762 7.26845 0.333328C7.3324 0.994168 7.08299 1.64179 6.70567 2.12421ZM7.26111 3.03616C6.72024 3.00399 6.22673 3.20424 5.82811 3.36599C5.57158 3.47008 5.35436 3.55822 5.18909 3.55822C5.00363 3.55822 4.77744 3.46537 4.52348 3.36112L4.52347 3.36111L4.52346 3.36111C4.19068 3.2245 3.81022 3.06832 3.41125 3.07581C2.49675 3.08903 1.6462 3.62431 1.17935 4.47679C0.220086 6.18176 0.929944 8.70617 1.85724 10.0939C2.31129 10.7812 2.85487 11.5346 3.57113 11.5081C3.88623 11.4958 4.1129 11.3964 4.34749 11.2936C4.61756 11.1752 4.89811 11.0521 5.33618 11.0521C5.75906 11.0521 6.02734 11.172 6.28488 11.287C6.52976 11.3963 6.76492 11.5014 7.11402 11.4949C7.85585 11.4817 8.3227 10.8076 8.77675 10.1204C9.26674 9.38274 9.48207 8.66285 9.51475 8.5536L9.51858 8.54096C9.5178 8.54015 9.51175 8.53728 9.50107 8.53223C9.33726 8.45474 8.08529 7.86247 8.07329 6.27428C8.06123 4.94121 9.06632 4.2658 9.22453 4.15948C9.23416 4.15301 9.24066 4.14865 9.24359 4.14637C8.60408 3.16833 7.60644 3.06259 7.26111 3.03616ZM12.3971 11.4222V1.11972H16.1383C18.0696 1.11972 19.419 2.49427 19.419 4.50322C19.419 6.51217 18.044 7.89994 16.0871 7.89994H13.9448V11.4222H12.3971ZM13.944 2.46783H15.7282C17.0712 2.46783 17.8386 3.20798 17.8386 4.50983C17.8386 5.81169 17.0712 6.55843 15.7219 6.55843H13.944V2.46783ZM24.5268 10.1864C24.1175 10.9927 23.2158 11.5015 22.2437 11.5015C20.8048 11.5015 19.8008 10.616 19.8008 9.28109C19.8008 7.95941 20.7728 7.19945 22.5699 7.08711L24.5012 6.96816V6.39983C24.5012 5.56057 23.9704 5.10459 23.0239 5.10459C22.2437 5.10459 21.6746 5.52092 21.5594 6.15532H20.1653C20.2101 4.82043 21.4251 3.84899 23.0687 3.84899C24.8401 3.84899 25.9913 4.80721 25.9913 6.2941V11.4222H24.5588V10.1864H24.5268ZM22.6606 10.279C21.8356 10.279 21.3112 9.86925 21.3112 9.24145C21.3112 8.59383 21.8164 8.21715 22.7821 8.15767L24.5024 8.04533V8.62687C24.5024 9.5917 23.7094 10.279 22.6606 10.279ZM30.7455 11.8253C30.1252 13.6294 29.4153 14.2242 27.9061 14.2242C27.7909 14.2242 27.4072 14.211 27.3177 14.1845V12.9488C27.4136 12.962 27.6502 12.9752 27.7718 12.9752C28.456 12.9752 28.8397 12.6778 29.0764 11.9046L29.2171 11.4487L26.5951 3.94812H28.213L30.0356 10.0345H30.0676L31.8902 3.94812H33.4634L30.7455 11.8253Z" fill="black"/>
</svg>
