<svg width="23" height="28" viewBox="0 0 23 28" fill="none" xmlns="http://www.w3.org/2000/svg">
<path fill-rule="evenodd" clip-rule="evenodd" d="M7.08913 26.6652L7.54356 23.7066L6.53125 23.6824H1.69727L5.05671 1.84959C5.06718 1.78348 5.10101 1.72211 5.15043 1.67845C5.20008 1.63479 5.26336 1.61084 5.32957 1.61084H13.4804C16.1866 1.61084 18.054 2.18789 19.0288 3.32702C19.4859 3.86141 19.777 4.41999 19.9179 5.03447C20.0657 5.67937 20.0681 6.44977 19.924 7.38956L19.9136 7.45792V8.06017L20.3707 8.32562C20.7555 8.53493 21.0614 8.77443 21.2961 9.04861C21.687 9.50566 21.9399 10.0865 22.0467 10.7748C22.1572 11.4828 22.1207 12.3255 21.9399 13.2796C21.7313 14.3768 21.3942 15.3325 20.9388 16.1144C20.5201 16.8349 19.9866 17.4327 19.353 17.8957C18.7481 18.3358 18.0296 18.6698 17.2171 18.8836C16.4297 19.0937 15.5321 19.1997 14.5475 19.1997H13.9132C13.4597 19.1997 13.0192 19.3671 12.6733 19.6673C12.3264 19.9736 12.0971 20.3923 12.0268 20.8501L11.9789 21.1165L11.1759 26.3314L11.1396 26.5227C11.1299 26.5834 11.1133 26.6136 11.089 26.634C11.0673 26.6527 11.0362 26.6652 11.0057 26.6652H7.08913Z" fill="#28356A"/>
<path fill-rule="evenodd" clip-rule="evenodd" d="M20.8028 7.52747C20.7787 7.68688 20.7507 7.84979 20.7195 8.0172C19.6446 13.6739 15.9671 15.6281 11.2704 15.6281H8.87892C8.30449 15.6281 7.82036 16.0555 7.73103 16.6363L6.15986 26.8512C6.10169 27.2327 6.38842 27.5762 6.76375 27.5762H11.0053C11.5074 27.5762 11.9341 27.2023 12.0132 26.6946L12.0548 26.4738L12.8535 21.2793L12.9048 20.9944C12.9829 20.485 13.4106 20.1108 13.9127 20.1108H14.5471C18.6564 20.1108 21.8735 18.4008 22.8138 13.4521C23.2064 11.3849 23.0031 9.65878 21.9638 8.44481C21.6493 8.07882 21.2591 7.77495 20.8028 7.52747Z" fill="#298FC2"/>
<path fill-rule="evenodd" clip-rule="evenodd" d="M19.6779 7.06799C19.5136 7.01884 19.3442 6.97443 19.1704 6.93427C18.9957 6.8951 18.8168 6.86042 18.6325 6.82998C17.9877 6.72321 17.2811 6.67256 16.5244 6.67256H10.1358C9.9783 6.67256 9.82885 6.70899 9.69522 6.77485C9.40046 6.92005 9.18164 7.20595 9.12858 7.55597L7.76941 16.3791L7.73047 16.6363C7.8198 16.0555 8.30393 15.6282 8.87836 15.6282H11.2698C15.9665 15.6282 19.6441 13.673 20.719 8.01726C20.7511 7.84986 20.7781 7.68695 20.8022 7.52753C20.5303 7.37959 20.2358 7.2531 19.9186 7.14533C19.8403 7.11863 19.7595 7.09294 19.6779 7.06799Z" fill="#22284F"/>
<path fill-rule="evenodd" clip-rule="evenodd" d="M9.12964 7.556C9.18271 7.20598 9.40153 6.92008 9.69629 6.77588C9.83089 6.70977 9.97936 6.67334 10.1368 6.67334H16.5254C17.2822 6.67334 17.9888 6.72424 18.6336 6.83101C18.8178 6.8612 18.9967 6.89613 19.1715 6.9353C19.3453 6.97521 19.5147 7.01987 19.679 7.06877C19.7605 7.09372 19.8413 7.11966 19.9204 7.14536C20.2376 7.25313 20.5324 7.38062 20.8042 7.52756C21.1241 5.43716 20.8016 4.01388 19.6989 2.72506C18.4831 1.30601 16.2891 0.698776 13.4814 0.698776H5.33036C4.75691 0.698776 4.26767 1.12614 4.17907 1.70793L0.784079 23.7653C0.717143 24.2016 1.04549 24.5953 1.47486 24.5953H6.50697L9.12964 7.556Z" fill="#28356A"/>
</svg>
