<svg width="32" height="32" viewBox="0 0 32 32" fill="none" xmlns="http://www.w3.org/2000/svg">
<mask id="mask0_330_1712" style="mask-type:alpha" maskUnits="userSpaceOnUse" x="0" y="0" width="32" height="32">
<path d="M0 0H32V32H0V0Z" fill="white"/>
</mask>
<g mask="url(#mask0_330_1712)">
<path d="M6.66602 22.6667C6.66602 23.3739 6.94697 24.0522 7.44706 24.5523C7.94716 25.0524 8.62544 25.3333 9.33268 25.3333C10.0399 25.3333 10.7182 25.0524 11.2183 24.5523C11.7184 24.0522 11.9993 23.3739 11.9993 22.6667C11.9993 21.9594 11.7184 21.2811 11.2183 20.781C10.7182 20.281 10.0399 20 9.33268 20C8.62544 20 7.94716 20.281 7.44706 20.781C6.94697 21.2811 6.66602 21.9594 6.66602 22.6667Z" stroke="black" stroke-width="2" stroke-linecap="round" stroke-linejoin="round"/>
<path d="M20 22.6667C20 23.3739 20.281 24.0522 20.781 24.5523C21.2811 25.0524 21.9594 25.3333 22.6667 25.3333C23.3739 25.3333 24.0522 25.0524 24.5523 24.5523C25.0524 24.0522 25.3333 23.3739 25.3333 22.6667C25.3333 21.9594 25.0524 21.2811 24.5523 20.781C24.0522 20.281 23.3739 20 22.6667 20C21.9594 20 21.2811 20.281 20.781 20.781C20.281 21.2811 20 21.9594 20 22.6667Z" stroke="black" stroke-width="2" stroke-linecap="round" stroke-linejoin="round"/>
<path d="M6.66602 22.6667H3.99935V17.3333M2.66602 6.66667H17.3327V22.6667M11.9993 22.6667H19.9993M25.3327 22.6667H27.9993V14.6667M27.9993 14.6667H17.3327M27.9993 14.6667L23.9993 8.00001H17.3327" stroke="black" stroke-width="2" stroke-linecap="round" stroke-linejoin="round"/>
<path d="M4 12H9.33333" stroke="black" stroke-width="2" stroke-linecap="round" stroke-linejoin="round"/>
</g>
</svg>
