<svg width="20" height="20" viewBox="0 0 20 20" fill="none" xmlns="http://www.w3.org/2000/svg">
<mask id="mask0_330_6192" style="mask-type:alpha" maskUnits="userSpaceOnUse" x="0" y="0" width="20" height="20">
<rect width="20" height="20" fill="white"/>
</mask>
<g mask="url(#mask0_330_6192)">
<path d="M15.7608 10.1528L9.51083 16.3428L3.26083 10.1528C2.84858 9.75168 2.52387 9.26952 2.30712 8.7367C2.09037 8.20389 1.9863 7.63196 2.00144 7.05695C2.01659 6.48194 2.15063 5.91629 2.39513 5.39562C2.63962 4.87495 2.98928 4.41055 3.42207 4.03166C3.85486 3.65276 4.36142 3.36758 4.90984 3.19407C5.45826 3.02057 6.03667 2.96249 6.60864 3.02351C7.18061 3.08452 7.73375 3.2633 8.23323 3.54859C8.73271 3.83389 9.1677 4.21951 9.51083 4.68117C9.85544 4.22286 10.2909 3.84061 10.7901 3.55834C11.2892 3.27608 11.8412 3.09988 12.4116 3.04077C12.982 2.98166 13.5584 3.04092 14.1048 3.21483C14.6512 3.38874 15.1559 3.67357 15.5871 4.05148C16.0184 4.42938 16.367 4.89224 16.6112 5.41108C16.8553 5.92992 16.9898 6.49358 17.0061 7.06676C17.0224 7.63995 16.9202 8.21033 16.7059 8.74221C16.4917 9.2741 16.1699 9.75602 15.7608 10.1578" stroke="#707070" stroke-width="2" stroke-linecap="round" stroke-linejoin="round"/>
</g>
</svg>
