<svg width="18" height="18" viewBox="0 0 18 18" fill="none" xmlns="http://www.w3.org/2000/svg">
<mask id="mask0_330_1739" style="mask-type:alpha" maskUnits="userSpaceOnUse" x="0" y="0" width="18" height="18">
<path d="M0 0H18V18H0V0Z" fill="white"/>
</mask>
<g mask="url(#mask0_330_1739)">
<path d="M9 1.5C8.8365 1.5 8.676 1.5015 8.5185 1.50375L8.0565 1.5165L7.83225 1.52625L7.398 1.55175L6.98325 1.58625C3.3945 1.93425 1.93425 3.3945 1.58625 6.98325L1.55175 7.398L1.52625 7.83225C1.5225 7.90575 1.51875 7.98075 1.5165 8.0565L1.50375 8.5185L1.50075 8.757L1.5 9C1.5 9.1635 1.5015 9.324 1.50375 9.4815L1.5165 9.9435L1.52625 10.1678L1.55175 10.602L1.58625 11.0168C1.93425 14.6055 3.3945 16.0658 6.98325 16.4137L7.398 16.4482L7.83225 16.4738C7.90575 16.4775 7.98075 16.4813 8.0565 16.4835L8.5185 16.4963L9 16.5L9.4815 16.4963L9.9435 16.4835L10.1678 16.4738L10.602 16.4482L11.0168 16.4137C14.6055 16.0658 16.0658 14.6055 16.4137 11.0168L16.4482 10.602L16.4738 10.1678C16.4775 10.0942 16.4813 10.0192 16.4835 9.9435L16.4963 9.4815L16.5 9L16.4963 8.5185L16.4835 8.0565L16.4738 7.83225L16.4482 7.398L16.4137 6.98325C16.0658 3.3945 14.6055 1.93425 11.0168 1.58625L10.602 1.55175L10.1678 1.52625C10.093 1.5226 10.0183 1.51935 9.9435 1.5165L9.4815 1.50375L9.243 1.50075L9 1.5ZM10.7198 6.96975C10.8547 6.83524 11.0358 6.75714 11.2263 6.75133C11.4167 6.74551 11.6023 6.81241 11.7452 6.93844C11.8881 7.06446 11.9777 7.24016 11.9958 7.42986C12.0139 7.61955 11.9591 7.80901 11.8425 7.95975L11.7802 8.03025L8.78025 11.0302C8.65111 11.1594 8.47928 11.237 8.29701 11.2484C8.11474 11.2599 7.93455 11.2044 7.79025 11.0925L7.71975 11.0302L6.21975 9.53025C6.08524 9.39528 6.00714 9.21417 6.00133 9.02371C5.99551 8.83325 6.06241 8.64772 6.18844 8.50479C6.31446 8.36187 6.49016 8.27227 6.67986 8.2542C6.86955 8.23613 7.05901 8.29094 7.20975 8.4075L7.28025 8.46975L8.25 9.43875L10.7198 6.96975Z" fill="#C4C4C4"/>
</g>
</svg>
